<?xml version="1.0" standalone="no"?>
<!DOCTYPE svg PUBLIC "-//W3C//DTD SVG 20010904//EN"
 "http://www.w3.org/TR/2001/REC-SVG-20010904/DTD/svg10.dtd">
<svg version="1.0" xmlns="http://www.w3.org/2000/svg"
 width="1280.000000pt" height="1263.000000pt" viewBox="0 0 1280.000000 1263.000000"
 preserveAspectRatio="xMidYMid meet">

<g transform="translate(0.000000,1263.000000) scale(0.100000,-0.100000)"
fill="#000000" stroke="none">
<path d="M2000 12620 c-30 -4 -75 -13 -100 -20 -25 -6 -63 -15 -85 -20 -171
-39 -448 -154 -619 -258 -182 -109 -275 -181 -426 -327 -256 -247 -393 -435
-539 -740 -87 -184 -130 -308 -176 -510 -15 -66 -32 -138 -38 -160 -15 -53
-22 -8345 -7 -8474 24 -212 78 -427 155 -622 187 -469 540 -901 940 -1146 107
-66 311 -173 329 -173 7 0 23 -8 36 -17 28 -20 114 -52 145 -54 12 -1 5 -6
-18 -13 -42 -13 -46 -25 -15 -42 19 -10 18 -12 -18 -18 -25 -5 -40 -4 -42 3
-8 24 -42 4 -42 -25 0 -2 2217 -3 4928 -2 l4927 3 0 31 c0 17 8 38 18 48 25
25 21 29 -13 11 -16 -9 -30 -22 -30 -30 0 -23 -20 -28 -38 -8 -9 10 -30 25
-46 33 -22 12 -25 16 -12 18 10 2 25 -3 35 -12 25 -23 40 -20 51 9 5 14 17 25
28 25 10 0 27 7 38 16 15 12 15 14 2 11 -9 -3 -18 -3 -21 0 -3 3 51 34 121 69
69 35 128 67 131 72 4 4 26 18 51 31 108 57 251 174 425 346 109 108 188 201
280 334 49 70 155 239 155 246 0 2 23 51 51 111 77 163 156 410 190 589 25
137 30 186 40 380 15 317 5 8089 -11 8175 -32 178 -32 179 -60 288 -88 346
-265 699 -486 967 -123 150 -272 297 -385 381 -15 10 -61 45 -103 77 -41 31
-78 57 -80 57 -3 0 -45 25 -95 55 -50 30 -92 55 -95 55 -2 0 -44 18 -93 40
-126 59 -124 58 -168 76 -38 15 -172 56 -245 74 -19 5 -55 14 -80 20 -25 6
-70 15 -100 20 -68 10 -8714 10 -8790 0z m2130 -2209 c183 -23 247 -32 285
-41 22 -4 72 -14 110 -20 39 -7 84 -16 100 -20 17 -5 73 -18 125 -30 114 -26
309 -81 405 -116 39 -14 95 -34 125 -44 291 -96 827 -362 1080 -534 25 -17 53
-35 62 -41 39 -23 185 -127 217 -154 18 -16 31 -33 27 -39 -3 -6 -48 -32 -99
-58 -103 -52 -283 -147 -366 -193 l-54 -29 -38 24 c-21 13 -41 24 -44 24 -4 0
-26 14 -50 30 -24 17 -47 30 -51 30 -4 0 -15 6 -23 14 -64 58 -711 350 -876
396 -16 5 -70 23 -119 40 -83 29 -307 91 -403 111 -24 5 -64 13 -90 19 -44 9
-80 16 -218 41 -338 61 -967 41 -1325 -41 -25 -6 -61 -13 -80 -16 -146 -23
-617 -161 -813 -238 -291 -114 -366 -133 -444 -112 -138 37 -204 124 -204 267
-1 62 4 86 25 127 24 47 82 104 134 131 38 20 421 171 497 196 39 12 88 30
110 38 22 8 74 25 115 37 41 13 95 29 119 37 25 8 77 21 115 30 39 8 89 19
111 24 22 5 63 14 90 19 28 6 70 15 95 20 313 67 574 90 960 85 168 -2 343 -8
390 -14z m5254 -570 c74 -18 135 -104 136 -191 0 -25 -7 -77 -15 -115 -15 -71
-40 -190 -48 -235 -2 -14 -11 -59 -20 -100 -8 -41 -25 -127 -36 -190 -12 -63
-26 -131 -31 -150 -5 -19 -14 -62 -19 -95 -6 -33 -24 -125 -41 -205 -17 -80
-44 -212 -60 -295 -16 -82 -41 -208 -56 -280 -14 -71 -30 -148 -34 -170 -4
-22 -15 -76 -24 -120 -9 -44 -33 -161 -52 -260 -41 -208 -66 -332 -94 -465
-11 -52 -31 -153 -45 -225 -25 -131 -55 -277 -95 -460 -11 -55 -25 -120 -30
-145 -20 -111 -51 -265 -75 -375 -15 -66 -30 -140 -35 -165 -4 -25 -14 -79
-23 -120 -17 -84 -19 -92 -47 -240 -18 -96 -49 -243 -100 -485 -10 -49 -28
-142 -40 -205 -12 -63 -33 -169 -46 -235 -14 -66 -30 -145 -35 -175 -6 -30
-17 -86 -25 -124 -8 -38 -28 -135 -44 -215 -16 -80 -50 -247 -76 -371 -26
-124 -50 -243 -54 -265 -81 -421 -96 -471 -158 -533 -103 -103 -248 -109 -379
-14 -28 20 -116 97 -195 171 -79 74 -175 164 -213 200 -39 36 -138 129 -220
207 -83 77 -184 171 -225 209 -41 38 -149 139 -240 225 -91 87 -199 188 -240
226 -80 73 -123 114 -433 403 -108 101 -207 200 -219 220 -16 25 -22 52 -23
91 0 54 20 95 82 170 7 8 26 33 42 55 16 22 75 99 130 170 56 72 136 175 178
230 43 55 116 150 163 210 158 203 194 249 374 485 99 129 182 237 185 240 4
3 42 52 85 110 107 142 193 254 295 385 48 61 127 163 176 228 50 65 133 173
185 241 52 68 142 185 200 261 58 75 156 203 218 283 62 81 141 183 175 227
34 44 101 130 150 190 106 132 142 200 133 249 -21 111 -141 168 -241 115 -30
-16 -553 -403 -610 -451 -5 -5 -91 -68 -190 -140 -99 -72 -229 -167 -290 -212
-60 -45 -159 -117 -220 -161 -278 -199 -406 -292 -475 -343 -41 -30 -93 -68
-115 -84 -22 -16 -92 -68 -155 -114 -63 -47 -223 -162 -355 -255 -132 -94
-316 -226 -410 -295 -93 -68 -177 -127 -185 -131 -8 -3 -17 -9 -20 -13 -7 -9
-121 -92 -222 -163 -203 -142 -430 -304 -513 -365 -129 -96 -184 -122 -258
-122 -55 0 -95 8 -152 31 -195 77 -434 174 -480 194 -16 7 -70 30 -120 50 -49
21 -108 45 -130 55 -22 9 -69 30 -105 45 -36 15 -78 33 -95 40 -35 16 -189 79
-444 182 -264 107 -300 127 -326 190 -45 107 -5 145 327 311 136 67 249 122
251 122 3 0 72 32 154 71 81 39 236 113 343 164 107 51 240 114 295 140 55 26
217 104 360 172 143 69 296 142 340 163 44 21 143 68 220 105 77 37 194 93
260 125 66 32 320 154 565 272 245 119 497 240 560 271 63 30 223 108 355 172
132 64 267 130 300 145 33 15 128 60 210 100 83 40 182 87 220 105 39 18 164
78 278 134 115 55 210 101 211 101 3 0 135 63 500 239 92 44 170 81 171 81 2
0 99 47 216 103 118 57 286 139 374 181 88 43 207 101 264 129 94 45 199 85
226 86 6 0 27 -4 49 -8z m-5319 -850 c163 -22 212 -31 352 -60 178 -36 427
-114 608 -189 163 -67 175 -73 175 -88 0 -18 -30 -34 -347 -194 l-282 -142
-53 10 c-29 6 -71 16 -93 22 -22 6 -62 15 -90 20 -27 5 -70 14 -95 20 -25 7
-72 15 -105 20 -33 4 -96 14 -140 22 -105 17 -548 18 -665 0 -47 -7 -114 -16
-150 -21 -79 -11 -162 -29 -335 -71 -108 -26 -488 -152 -635 -210 -205 -81
-207 -82 -420 -175 -73 -32 -96 -38 -160 -38 -76 0 -105 10 -181 63 -40 29
-77 108 -85 181 -10 97 13 165 75 227 42 42 76 61 237 132 104 46 223 96 264
112 41 16 89 35 105 43 108 47 192 76 380 133 191 58 310 92 365 103 30 6 75
15 100 21 145 30 195 38 345 57 49 7 91 14 94 17 9 9 661 -4 736 -15z m6113
-252 c42 -12 91 -25 107 -29 17 -5 77 -22 135 -40 58 -17 123 -35 145 -40 40
-9 60 -14 170 -45 33 -10 76 -21 95 -25 67 -15 292 -72 363 -92 97 -27 178
-92 217 -175 40 -86 21 -213 -44 -290 -66 -78 -207 -122 -300 -94 -17 6 -62
17 -101 26 -128 30 -140 33 -195 47 -30 8 -91 23 -135 33 -44 10 -107 27 -139
37 -33 10 -67 18 -76 18 -10 0 -39 8 -66 19 -27 10 -83 29 -124 41 -125 38
-209 69 -236 87 -24 15 -26 21 -21 67 4 28 13 83 21 121 7 39 26 129 40 200
15 72 29 136 31 143 6 17 23 15 113 -9z m-7597 -1350 c-29 -17 -196 -102 -401
-204 -25 -13 -103 -55 -174 -94 -70 -39 -130 -71 -133 -71 -20 0 -161 -111
-197 -155 -71 -87 -87 -144 -93 -320 l-6 -151 -33 4 c-46 6 -121 74 -150 137
-18 39 -24 67 -24 127 0 114 35 183 126 246 37 26 282 148 404 202 47 21 121
54 165 74 89 41 90 42 195 85 41 17 131 55 200 85 130 57 180 71 121 35z
m7360 -40 c63 -22 164 -58 224 -80 224 -81 312 -111 395 -135 47 -14 110 -34
140 -44 102 -34 184 -58 290 -85 205 -52 269 -75 320 -116 88 -70 120 -132
120 -236 0 -71 -19 -122 -68 -182 -51 -63 -120 -91 -224 -91 -45 0 -95 4 -112
9 -62 19 -144 43 -276 82 -74 22 -146 43 -160 48 -14 5 -45 14 -70 21 -25 7
-54 16 -65 20 -11 4 -81 28 -155 53 -155 52 -176 59 -285 99 -74 28 -96 36
-150 59 -11 5 -31 13 -45 18 -14 5 -44 23 -67 40 -36 26 -43 37 -43 64 0 29
23 149 51 267 4 19 11 49 14 65 32 166 32 165 43 165 5 0 60 -18 123 -41z
m-3047 -485 c-44 -53 -116 -144 -162 -203 -232 -296 -280 -357 -318 -405 -161
-201 -418 -528 -514 -652 -63 -82 -191 -246 -285 -364 -94 -118 -182 -231
-195 -250 -13 -19 -27 -37 -30 -40 -4 -3 -35 -42 -68 -88 -84 -113 -96 -142
-127 -302 -9 -47 -24 -114 -32 -149 -8 -35 -18 -85 -23 -110 -4 -25 -21 -113
-38 -196 -26 -128 -105 -527 -172 -875 -10 -52 -22 -117 -26 -145 -20 -146
-80 -215 -184 -215 -41 0 -53 5 -92 40 -32 28 -48 52 -56 82 -12 47 -30 928
-34 1745 l-3 482 35 36 c35 37 109 91 500 365 113 79 282 199 375 265 94 67
219 155 278 196 60 41 137 94 172 119 34 25 112 79 171 122 60 42 173 123 252
180 78 56 165 119 192 138 77 53 101 71 284 206 93 68 171 122 174 120 2 -3
-31 -49 -74 -102z m2748 -874 c101 -38 248 -95 305 -121 24 -10 46 -19 50 -19
5 0 60 -20 123 -46 234 -92 681 -259 875 -325 236 -82 292 -108 347 -165 63
-65 88 -118 88 -191 0 -40 -4 -55 -36 -128 -34 -78 -160 -155 -257 -155 -62 0
-139 22 -352 102 -88 33 -207 77 -265 98 -106 39 -358 134 -395 150 -11 4 -78
31 -150 60 -71 29 -143 58 -160 65 -16 7 -73 29 -125 50 -52 21 -114 46 -137
56 -23 11 -46 19 -50 19 -5 0 -26 16 -47 35 -35 32 -38 38 -33 77 3 24 10 63
17 88 11 43 16 68 40 178 6 26 15 72 20 102 19 116 17 115 142 70z m-7380
-340 c26 -16 53 -30 58 -30 6 0 18 -4 28 -9 45 -25 175 -81 188 -81 8 0 14 -4
14 -10 0 -5 6 -10 14 -10 12 0 69 -23 268 -107 29 -12 35 -19 29 -32 -8 -14
-208 -107 -381 -177 -36 -14 -98 -41 -138 -60 -41 -19 -76 -34 -78 -34 -2 0
-61 -28 -131 -61 -259 -125 -442 -199 -487 -199 -35 1 -155 47 -189 73 -18 14
-45 48 -61 77 -26 48 -28 58 -24 139 3 72 9 95 31 133 38 65 76 94 212 159
112 53 148 70 330 154 72 33 199 88 225 98 29 10 43 7 92 -23z m1257 -1022
c12 -40 26 -89 31 -108 5 -19 16 -64 26 -100 19 -73 53 -221 54 -232 0 -12
-68 -44 -155 -72 -44 -15 -89 -31 -100 -36 -11 -5 -40 -16 -65 -24 -97 -31
-331 -126 -435 -175 -333 -159 -581 -291 -857 -457 -205 -124 -253 -148 -321
-164 -112 -25 -236 37 -295 147 -26 50 -32 72 -32 123 0 35 5 81 12 104 15 50
100 139 173 180 66 38 213 123 355 206 234 137 533 291 765 393 126 55 346
147 353 147 3 0 47 15 97 34 173 65 299 103 346 105 24 1 28 -5 48 -71z m5811
43 c19 -5 80 -26 135 -46 55 -20 111 -40 125 -45 71 -24 293 -113 377 -151 23
-10 44 -19 47 -19 3 0 29 -11 58 -24 29 -13 87 -38 128 -56 81 -35 382 -184
520 -257 47 -25 137 -74 200 -108 63 -34 170 -90 238 -125 152 -78 218 -138
252 -225 20 -55 21 -65 10 -120 -15 -74 -29 -103 -78 -152 -84 -85 -191 -108
-316 -68 -71 22 -257 114 -380 188 -28 16 -192 102 -365 189 -310 158 -511
250 -706 322 -55 21 -120 46 -145 56 -25 10 -93 37 -151 60 -129 50 -137 60
-120 152 7 35 15 81 18 103 3 22 9 44 14 50 5 5 9 20 9 34 0 13 4 38 9 55 6
17 15 58 21 91 21 110 26 114 100 96z m-5467 -1363 c3 -13 11 -41 17 -63 6
-22 15 -62 20 -90 4 -27 18 -93 29 -145 12 -52 23 -122 24 -155 l2 -59 -130
-49 c-380 -141 -651 -273 -1000 -484 -49 -30 -99 -59 -110 -66 -11 -7 -56 -35
-100 -63 -112 -72 -173 -101 -232 -112 -105 -19 -201 18 -263 100 -94 125 -78
286 39 390 47 42 88 68 335 215 67 39 146 87 176 105 271 161 640 330 960 438
189 65 225 70 233 38z m5198 -19 c19 -6 43 -14 54 -19 11 -5 70 -27 130 -50
120 -45 249 -98 335 -137 76 -35 416 -205 465 -233 22 -13 69 -39 105 -58 36
-19 101 -56 145 -82 44 -26 122 -70 173 -98 118 -65 185 -121 223 -186 24 -43
29 -62 29 -123 0 -147 -89 -255 -234 -282 -95 -18 -132 -4 -385 143 -62 36
-116 66 -118 66 -2 0 -24 14 -48 30 -24 17 -46 30 -48 30 -3 0 -34 16 -69 36
-184 106 -481 248 -818 391 -141 60 -141 60 -101 238 5 22 21 99 35 170 14 72
28 140 31 153 6 25 39 29 96 11z m-3389 -598 c123 -51 410 -183 565 -263 267
-135 313 -172 313 -253 0 -50 -14 -71 -62 -96 -38 -20 -53 -21 -153 -15 -181
10 -493 48 -630 76 -27 6 -90 17 -140 25 -49 8 -110 20 -135 25 -25 6 -61 15
-80 19 -19 5 -55 16 -80 25 -25 8 -53 16 -63 16 -28 0 -17 15 41 58 92 69 243
224 317 327 48 66 62 74 107 56z"/>
<path d="M1382 76 c-34 -11 -54 -48 -34 -68 6 -6 14 0 23 20 14 32 33 33 57 4
10 -14 12 -13 12 6 0 14 -6 22 -17 22 -14 0 -15 2 -4 9 21 14 -1 18 -37 7z"/>
<path d="M11360 35 c0 -32 2 -35 30 -35 l30 0 -17 35 c-9 19 -23 35 -30 35 -8
0 -13 -13 -13 -35z"/>
<path d="M1275 30 c-11 -18 13 -36 31 -25 9 6 16 15 17 20 3 14 -40 18 -48 5z"/>
<path d="M1388 3 c6 -2 18 -2 25 0 6 3 1 5 -13 5 -14 0 -19 -2 -12 -5z"/>
</g>
</svg>
